<mxfile host="app.diagrams.net" modified="2024-02-06T02:56:31.716Z" agent="Mozilla/5.0 (Windows NT 10.0; Win64; x64) AppleWebKit/537.36 (KHTML, like Gecko) Chrome/121.0.0.0 Safari/537.36" version="23.1.1" etag="co-vOp-GTO_9LT-6__yO" type="github">
  <diagram name="Page-1" id="3m2LEzwIaYAkLvQO27Qr">
    <mxGraphModel>
      <root>
        <mxCell id="0" />
        <mxCell id="1" parent="0" />
      </root>
    </mxGraphModel>
  </diagram>
</mxfile>
